<svg width="1920" height="1080" viewBox="0 0 1920 1080" fill="none" xmlns="http://www.w3.org/2000/svg">
<path d="M172 634.726L229.086 743.67L272.641 687.584L321.27 815.493L399.922 634.726L448.551 722.688L527.625 516.501L579.214 599.621L656.598 375.679L695.078 470.098L713.684 434.994L752.164 546.763L785.57 470.098L851.113 677.9L877.754 618.989L903.125 698.882L944.988 585.095L981.777 662.164L1047.32 434.994L1102.72 585.095L1193.21 234.858L1250.29 332.505L1295.54 182L1367.43 404.328L1412.67 332.505L1525.15 777.161L1587.31 516.501L1679.5 897L1748 722.688" stroke="black" stroke-width="8" stroke-linecap="round"/>
<path d="M915 710H1492" stroke="black" stroke-width="4"/>
<path d="M664 361H1151" stroke="black" stroke-width="4"/>
<path d="M328 826H1648" stroke="black" stroke-width="4"/>
<path d="M1306 166H1748" stroke="black" stroke-width="4"/>
</svg>
