<svg width="1920" height="1080" viewBox="0 0 1920 1080" fill="none" xmlns="http://www.w3.org/2000/svg">
<g clip-path="url(#clip0_40_22)">
<mask id="mask0_40_22" style="mask-type:luminance" maskUnits="userSpaceOnUse" x="0" y="0" width="1920" height="1080">
<path d="M1920 0H0V1080H1920V0Z" fill="white"/>
</mask>
<g mask="url(#mask0_40_22)">
<mask id="mask1_40_22" style="mask-type:luminance" maskUnits="userSpaceOnUse" x="0" y="0" width="1920" height="1080">
<path d="M1920 0H0V1080H1920V0Z" fill="white"/>
</mask>
<g mask="url(#mask1_40_22)">
<mask id="mask2_40_22" style="mask-type:luminance" maskUnits="userSpaceOnUse" x="0" y="0" width="1920" height="1080">
<path d="M1920 0H0V1080H1920V0Z" fill="white"/>
</mask>
<g mask="url(#mask2_40_22)">
<path d="M248.842 529.547C247.487 531.291 247.802 533.804 249.547 535.16C251.291 536.515 253.804 536.2 255.16 534.455L248.842 529.547ZM365.83 385.5L368.842 382.868L365.649 379.213L362.671 383.046L365.83 385.5ZM431.731 460.934L428.719 463.566L432.204 467.555L435.087 463.111L431.731 460.934ZM545.56 285.45L549.106 283.6L545.935 277.521L542.204 283.273L545.56 285.45ZM611 410.909L607.454 412.759L610.351 418.314L614.171 413.348L611 410.909ZM767.967 211.484C767.682 209.293 765.674 207.749 763.484 208.035L727.786 212.691C725.595 212.977 724.051 214.985 724.337 217.175C724.623 219.366 726.63 220.91 728.821 220.624L760.552 216.485L764.691 248.216C764.977 250.407 766.985 251.951 769.175 251.665C771.366 251.379 772.91 249.372 772.624 247.181L767.967 211.484ZM255.16 534.455L368.989 387.954L362.671 383.046L248.842 529.547L255.16 534.455ZM362.818 388.131L428.719 463.566L434.743 458.302L368.842 382.868L362.818 388.131ZM435.087 463.111L548.916 287.627L542.204 283.273L428.375 458.757L435.087 463.111ZM542.013 287.3L607.454 412.759L614.547 409.059L549.106 283.6L542.013 287.3ZM614.171 413.348L767.172 214.44L760.83 209.562L607.83 408.47L614.171 413.348Z" fill="black"/>
<path d="M248.593 865.906C247.436 867.788 248.024 870.252 249.906 871.409C251.788 872.566 254.252 871.978 255.409 870.096L248.593 865.906ZM329.61 741.759L332.922 739.515L329.447 734.386L326.203 739.664L329.61 741.759ZM381.84 818.862L378.528 821.106L382.173 826.486L385.335 820.809L381.84 818.862ZM462.392 674.243L465.986 672.487L462.623 665.607L458.897 672.297L462.392 674.243ZM509.84 771.322L506.246 773.078L509.222 779.166L513.114 773.62L509.84 771.322ZM538.162 730.972L541.885 729.511L539.166 722.58L534.888 728.674L538.162 730.972ZM566.852 804.081L563.128 805.542L566.663 814.549L570.52 805.676L566.852 804.081ZM651.081 610.323L654.645 608.507L650.794 600.95L647.413 608.728L651.081 610.323ZM694.852 696.216L691.288 698.032L695.01 705.337L698.476 697.907L694.852 696.216ZM767.76 546.634C767.005 544.558 764.71 543.487 762.634 544.242L728.802 556.548C726.726 557.303 725.655 559.598 726.411 561.674C727.166 563.75 729.461 564.821 731.537 564.066L761.609 553.127L772.548 583.2C773.303 585.276 775.598 586.347 777.674 585.591C779.75 584.836 780.821 582.541 780.066 580.465L767.76 546.634ZM255.409 870.096L333.018 743.854L326.203 739.664L248.593 865.906L255.409 870.096ZM326.298 744.002L378.528 821.106L385.152 816.619L332.922 739.515L326.298 744.002ZM385.335 820.809L465.886 676.19L458.897 672.297L378.346 816.916L385.335 820.809ZM458.798 676L506.246 773.078L513.434 769.565L465.986 672.487L458.798 676ZM513.114 773.62L541.436 733.27L534.888 728.674L506.566 769.024L513.114 773.62ZM534.438 732.434L563.128 805.542L570.575 802.62L541.885 729.511L534.438 732.434ZM570.52 805.676L654.75 611.918L647.413 608.728L563.183 802.486L570.52 805.676ZM647.518 612.139L691.288 698.032L698.415 694.4L654.645 608.507L647.518 612.139ZM698.476 697.907L767.626 549.692L760.376 546.31L691.227 694.525L698.476 697.907Z" fill="black"/>
<path d="M1151.36 209.83C1150.16 207.975 1147.68 207.442 1145.83 208.641C1143.97 209.84 1143.44 212.316 1144.64 214.172L1151.36 209.83ZM1248.59 367.691L1245.23 369.862L1248.12 374.335L1251.61 370.313L1248.59 367.691ZM1319.67 285.806L1323.15 283.832L1320.36 278.911L1316.65 283.184L1319.67 285.806ZM1423.28 468.432L1419.8 470.406L1422.99 476.028L1426.59 470.665L1423.28 468.432ZM1508.81 341.294L1511.94 338.809L1508.54 334.521L1505.49 339.061L1508.81 341.294ZM1659.54 535.975C1661.74 536.228 1663.72 534.655 1663.97 532.46L1668.11 496.698C1668.36 494.504 1666.79 492.519 1664.59 492.266C1662.4 492.012 1660.41 493.585 1660.16 495.78L1656.49 527.568L1624.7 523.894C1622.5 523.64 1620.52 525.214 1620.26 527.408C1620.01 529.603 1621.58 531.588 1623.78 531.841L1659.54 535.975ZM1144.64 214.172L1245.23 369.862L1251.95 365.52L1151.36 209.83L1144.64 214.172ZM1251.61 370.313L1322.69 288.428L1316.65 283.184L1245.57 365.069L1251.61 370.313ZM1316.19 287.779L1419.8 470.406L1426.75 466.458L1323.15 283.832L1316.19 287.779ZM1426.59 470.665L1512.13 343.527L1505.49 339.061L1419.96 466.199L1426.59 470.665ZM1505.67 343.779L1656.87 534.486L1663.13 529.516L1511.94 338.809L1505.67 343.779Z" fill="black"/>
<path d="M1151.44 545.953C1150.3 544.055 1147.85 543.434 1145.95 544.565C1144.05 545.696 1143.43 548.151 1144.56 550.049L1151.44 545.953ZM1228.86 683.671L1225.43 685.719L1228.84 691.438L1232.29 685.743L1228.86 683.671ZM1275.57 606.558L1279.18 604.832L1275.98 598.153L1272.15 604.486L1275.57 606.558ZM1352.11 766.558L1348.5 768.284L1352.24 776.101L1355.76 768.184L1352.11 766.558ZM1383.68 695.63L1387.1 693.566L1383.14 686.992L1380.02 694.003L1383.68 695.63ZM1407.03 734.393L1403.6 736.457L1407.8 743.426L1410.75 735.845L1407.03 734.393ZM1443.35 641.197L1447 639.548L1443.08 630.885L1439.62 639.744L1443.35 641.197ZM1530.27 833.362L1526.63 835.01L1530.82 844.289L1534.06 834.634L1530.27 833.362ZM1568.32 719.96L1571.73 717.854L1567.24 710.613L1564.53 718.687L1568.32 719.96ZM1659.08 871.895C1661.23 872.4 1663.39 871.067 1663.89 868.917L1672.13 833.872C1672.64 831.722 1671.31 829.569 1669.16 829.063C1667.01 828.557 1664.85 829.891 1664.35 832.041L1657.02 863.192L1625.87 855.867C1623.72 855.361 1621.57 856.695 1621.06 858.845C1620.56 860.996 1621.89 863.149 1624.04 863.655L1659.08 871.895ZM1144.56 550.049L1225.43 685.719L1232.3 681.623L1151.44 545.953L1144.56 550.049ZM1232.29 685.743L1278.99 608.63L1272.15 604.486L1225.44 681.599L1232.29 685.743ZM1271.96 608.284L1348.5 768.284L1355.72 764.832L1279.18 604.832L1271.96 608.284ZM1355.76 768.184L1387.33 697.256L1380.02 694.003L1348.45 764.931L1355.76 768.184ZM1380.25 697.694L1403.6 736.457L1410.45 732.329L1387.1 693.566L1380.25 697.694ZM1410.75 735.845L1447.08 642.649L1439.62 639.744L1403.3 732.94L1410.75 735.845ZM1439.71 642.845L1526.63 835.01L1533.91 831.713L1447 639.548L1439.71 642.845ZM1534.06 834.634L1572.12 721.232L1564.53 718.687L1526.48 832.089L1534.06 834.634ZM1564.92 722.066L1656.6 870.107L1663.4 865.895L1571.73 717.854L1564.92 722.066Z" fill="black"/>
<path d="M342.001 732.001H411.001" stroke="black" stroke-width="4"/>
<path d="M373.001 373.001H477.001" stroke="black" stroke-width="4"/>
<path d="M550.001 273.001H705.001" stroke="black" stroke-width="4"/>
<path d="M1256 373.001H1359" stroke="black" stroke-width="4"/>
<path d="M1235 692.001H1306" stroke="black" stroke-width="4"/>
<path d="M1359 775.001H1492" stroke="black" stroke-width="4"/>
<path d="M1535 842.001H1631" stroke="black" stroke-width="4"/>
<path d="M1430 475.001H1602" stroke="black" stroke-width="4"/>
<path d="M473.001 665.001H614.001" stroke="black" stroke-width="4"/>
<path d="M656.001 597.001H727.001" stroke="black" stroke-width="4"/>
</g>
</g>
</g>
</g>
<defs>
<clipPath id="clip0_40_22">
<rect width="1920" height="1080" fill="white"/>
</clipPath>
</defs>
</svg>
